<svg width="158" height="49" viewBox="0 0 158 49" fill="none" xmlns="http://www.w3.org/2000/svg">
<path d="M55.85 34.9576C55.65 34.9576 55.47 34.8876 55.31 34.7476C55.17 34.5876 55.1 34.4076 55.1 34.2076V14.7076C55.1 14.4876 55.17 14.3076 55.31 14.1676C55.47 14.0276 55.65 13.9576 55.85 13.9576H59.09C59.57 13.9576 59.92 14.1776 60.14 14.6176L65.42 24.0676L70.7 14.6176C70.92 14.1776 71.27 13.9576 71.75 13.9576H74.96C75.18 13.9576 75.36 14.0276 75.5 14.1676C75.66 14.3076 75.74 14.4876 75.74 14.7076V34.2076C75.74 34.4276 75.66 34.6076 75.5 34.7476C75.36 34.8876 75.18 34.9576 74.96 34.9576H71.39C71.17 34.9576 70.98 34.8876 70.82 34.7476C70.68 34.6076 70.61 34.4276 70.61 34.2076V22.9576L67.25 29.2276C66.99 29.6876 66.64 29.9176 66.2 29.9176H64.64C64.38 29.9176 64.17 29.8576 64.01 29.7376C63.85 29.6176 63.71 29.4476 63.59 29.2276L60.2 22.9576V34.2076C60.2 34.4076 60.13 34.5876 59.99 34.7476C59.85 34.8876 59.67 34.9576 59.45 34.9576H55.85ZM84.7437 35.2576C82.9837 35.2576 81.5637 34.6676 80.4837 33.4876C79.4037 32.2876 78.8637 30.6176 78.8637 28.4776V20.1076C78.8637 19.8876 78.9337 19.7076 79.0737 19.5676C79.2137 19.4276 79.3937 19.3576 79.6137 19.3576H83.3637C83.5837 19.3576 83.7637 19.4276 83.9038 19.5676C84.0637 19.7076 84.1437 19.8876 84.1437 20.1076V28.2976C84.1437 30.2576 85.0137 31.2376 86.7537 31.2376C87.5938 31.2376 88.2538 30.9776 88.7338 30.4576C89.2137 29.9376 89.4537 29.2176 89.4537 28.2976V20.1076C89.4537 19.8876 89.5238 19.7076 89.6638 19.5676C89.8238 19.4276 90.0038 19.3576 90.2037 19.3576H93.9538C94.1738 19.3576 94.3538 19.4276 94.4938 19.5676C94.6338 19.7076 94.7038 19.8876 94.7038 20.1076V34.2076C94.7038 34.4076 94.6338 34.5876 94.4938 34.7476C94.3538 34.8876 94.1738 34.9576 93.9538 34.9576H90.4738C90.2738 34.9576 90.0938 34.8876 89.9337 34.7476C89.7937 34.5876 89.7237 34.4076 89.7237 34.2076V33.0676C88.6838 34.5276 87.0238 35.2576 84.7437 35.2576ZM104.052 35.2576C102.432 35.2576 101.072 35.0276 99.9725 34.5676C98.8925 34.1076 98.0925 33.5576 97.5725 32.9176C97.0525 32.2776 96.7925 31.7076 96.7925 31.2076C96.7925 31.0076 96.8625 30.8476 97.0025 30.7276C97.1625 30.5876 97.3325 30.5176 97.5125 30.5176H100.932C101.052 30.5176 101.162 30.5676 101.262 30.6676C101.502 30.8276 101.682 30.9576 101.802 31.0576C102.242 31.3776 102.622 31.6176 102.942 31.7776C103.282 31.9176 103.692 31.9876 104.172 31.9876C104.752 31.9876 105.222 31.8776 105.582 31.6576C105.962 31.4176 106.152 31.0876 106.152 30.6676C106.152 30.3276 106.052 30.0576 105.852 29.8576C105.672 29.6576 105.312 29.4676 104.772 29.2876C104.232 29.0876 103.412 28.8776 102.312 28.6576C100.652 28.3176 99.3725 27.7676 98.4725 27.0076C97.5925 26.2276 97.1525 25.1876 97.1525 23.8876C97.1525 23.0676 97.4125 22.2876 97.9325 21.5476C98.4525 20.8076 99.2225 20.2076 100.242 19.7476C101.282 19.2876 102.512 19.0576 103.932 19.0576C105.352 19.0576 106.592 19.2776 107.652 19.7176C108.712 20.1576 109.512 20.6976 110.052 21.3376C110.613 21.9576 110.893 22.5276 110.893 23.0476C110.893 23.2276 110.823 23.3876 110.682 23.5276C110.563 23.6676 110.413 23.7376 110.233 23.7376H107.113C106.952 23.7376 106.802 23.6876 106.662 23.5876C106.402 23.4476 106.172 23.2976 105.972 23.1376C105.632 22.8776 105.312 22.6776 105.012 22.5376C104.712 22.3976 104.342 22.3276 103.902 22.3276C103.382 22.3276 102.962 22.4476 102.642 22.6876C102.342 22.9276 102.192 23.2376 102.192 23.6176C102.192 23.9176 102.272 24.1676 102.432 24.3676C102.612 24.5676 102.972 24.7676 103.512 24.9676C104.072 25.1476 104.892 25.3376 105.972 25.5376C107.912 25.8776 109.322 26.4776 110.202 27.3376C111.102 28.1976 111.552 29.2076 111.552 30.3676C111.552 31.8476 110.892 33.0376 109.572 33.9376C108.253 34.8176 106.412 35.2576 104.052 35.2576ZM114.335 17.1076C114.115 17.1076 113.935 17.0376 113.795 16.8976C113.655 16.7576 113.585 16.5776 113.585 16.3576V13.6576C113.585 13.4376 113.655 13.2576 113.795 13.1176C113.935 12.9776 114.115 12.9076 114.335 12.9076H117.935C118.155 12.9076 118.335 12.9776 118.475 13.1176C118.615 13.2576 118.685 13.4376 118.685 13.6576V16.3576C118.685 16.5776 118.615 16.7576 118.475 16.8976C118.335 17.0376 118.155 17.1076 117.935 17.1076H114.335ZM114.365 34.9576C114.145 34.9576 113.965 34.8876 113.825 34.7476C113.685 34.6076 113.615 34.4276 113.615 34.2076V20.1076C113.615 19.8876 113.685 19.7076 113.825 19.5676C113.965 19.4276 114.145 19.3576 114.365 19.3576H117.905C118.125 19.3576 118.305 19.4276 118.445 19.5676C118.585 19.7076 118.655 19.8876 118.655 20.1076V34.2076C118.655 34.4076 118.585 34.5876 118.445 34.7476C118.305 34.8876 118.125 34.9576 117.905 34.9576H114.365ZM124.119 34.9576C123.919 34.9576 123.739 34.8876 123.579 34.7476C123.439 34.5876 123.369 34.4076 123.369 34.2076V23.2876H121.089C120.869 23.2876 120.689 23.2176 120.549 23.0776C120.409 22.9376 120.339 22.7576 120.339 22.5376V20.1076C120.339 19.8876 120.409 19.7076 120.549 19.5676C120.689 19.4276 120.869 19.3576 121.089 19.3576H123.369V18.3976C123.369 16.4176 123.929 14.9876 125.049 14.1076C126.189 13.2076 127.819 12.7576 129.939 12.7576H132.279C132.499 12.7576 132.679 12.8276 132.819 12.9676C132.959 13.1076 133.029 13.2876 133.029 13.5076V15.9376C133.029 16.1376 132.959 16.3176 132.819 16.4776C132.679 16.6176 132.499 16.6876 132.279 16.6876H130.179C129.519 16.6876 129.049 16.8476 128.769 17.1676C128.489 17.4676 128.349 17.9276 128.349 18.5476V19.3576H131.979C132.199 19.3576 132.379 19.4276 132.519 19.5676C132.659 19.7076 132.729 19.8876 132.729 20.1076V22.5376C132.729 22.7376 132.659 22.9176 132.519 23.0776C132.379 23.2176 132.199 23.2876 131.979 23.2876H128.349V34.2076C128.349 34.4076 128.279 34.5876 128.139 34.7476C127.999 34.8876 127.819 34.9576 127.599 34.9576H124.119ZM137.209 40.6576C137.029 40.6576 136.879 40.5976 136.759 40.4776C136.639 40.3576 136.579 40.2076 136.579 40.0276C136.579 39.8876 136.609 39.7576 136.669 39.6376L139.009 33.9976L133.249 20.3776C133.189 20.2176 133.159 20.0976 133.159 20.0176C133.199 19.8376 133.279 19.6876 133.399 19.5676C133.519 19.4276 133.669 19.3576 133.849 19.3576H137.269C137.689 19.3576 137.979 19.5676 138.139 19.9876L141.559 28.7176L145.069 19.9876C145.269 19.5676 145.569 19.3576 145.969 19.3576H149.329C149.509 19.3576 149.659 19.4276 149.779 19.5676C149.919 19.6876 149.989 19.8276 149.989 19.9876C149.989 20.0676 149.959 20.1976 149.899 20.3776L141.409 40.0276C141.249 40.4476 140.949 40.6576 140.509 40.6576H137.209Z" fill="black"/>
<ellipse cx="24" cy="24.3127" rx="24" ry="24.3127" fill="black"/>
<rect x="15.1579" y="18.7677" width="4.21053" height="17.0615" fill="white"/>
<rect x="8.42105" y="11.9431" width="4.21053" height="23.8862" fill="white"/>
<rect x="28.6316" y="18.7677" width="4.21053" height="17.0615" fill="white"/>
<rect x="21.8947" y="24.7393" width="4.21053" height="11.09" fill="white"/>
<rect x="35.3684" y="11.9431" width="4.21053" height="23.8862" fill="white"/>
</svg>
