<svg width="158" height="49" viewBox="0 0 158 49" fill="none" xmlns="http://www.w3.org/2000/svg">
<path d="M55.85 35C55.65 35 55.47 34.93 55.31 34.79C55.17 34.63 55.1 34.45 55.1 34.25V14.75C55.1 14.53 55.17 14.35 55.31 14.21C55.47 14.07 55.65 14 55.85 14H59.09C59.57 14 59.92 14.22 60.14 14.66L65.42 24.11L70.7 14.66C70.92 14.22 71.27 14 71.75 14H74.96C75.18 14 75.36 14.07 75.5 14.21C75.66 14.35 75.74 14.53 75.74 14.75V34.25C75.74 34.47 75.66 34.65 75.5 34.79C75.36 34.93 75.18 35 74.96 35H71.39C71.17 35 70.98 34.93 70.82 34.79C70.68 34.65 70.61 34.47 70.61 34.25V23L67.25 29.27C66.99 29.73 66.64 29.96 66.2 29.96H64.64C64.38 29.96 64.17 29.9 64.01 29.78C63.85 29.66 63.71 29.49 63.59 29.27L60.2 23V34.25C60.2 34.45 60.13 34.63 59.99 34.79C59.85 34.93 59.67 35 59.45 35H55.85ZM84.7437 35.3C82.9837 35.3 81.5637 34.71 80.4837 33.53C79.4037 32.33 78.8637 30.66 78.8637 28.52V20.15C78.8637 19.93 78.9337 19.75 79.0737 19.61C79.2137 19.47 79.3937 19.4 79.6137 19.4H83.3637C83.5837 19.4 83.7637 19.47 83.9038 19.61C84.0637 19.75 84.1437 19.93 84.1437 20.15V28.34C84.1437 30.3 85.0137 31.28 86.7537 31.28C87.5938 31.28 88.2538 31.02 88.7338 30.5C89.2137 29.98 89.4537 29.26 89.4537 28.34V20.15C89.4537 19.93 89.5238 19.75 89.6638 19.61C89.8238 19.47 90.0038 19.4 90.2037 19.4H93.9538C94.1738 19.4 94.3538 19.47 94.4938 19.61C94.6338 19.75 94.7038 19.93 94.7038 20.15V34.25C94.7038 34.45 94.6338 34.63 94.4938 34.79C94.3538 34.93 94.1738 35 93.9538 35H90.4738C90.2738 35 90.0938 34.93 89.9337 34.79C89.7937 34.63 89.7237 34.45 89.7237 34.25V33.11C88.6838 34.57 87.0238 35.3 84.7437 35.3ZM104.052 35.3C102.432 35.3 101.072 35.07 99.9725 34.61C98.8925 34.15 98.0925 33.6 97.5725 32.96C97.0525 32.32 96.7925 31.75 96.7925 31.25C96.7925 31.05 96.8625 30.89 97.0025 30.77C97.1625 30.63 97.3325 30.56 97.5125 30.56H100.932C101.052 30.56 101.162 30.61 101.262 30.71C101.502 30.87 101.682 31 101.802 31.1C102.242 31.42 102.622 31.66 102.942 31.82C103.282 31.96 103.692 32.03 104.172 32.03C104.752 32.03 105.222 31.92 105.582 31.7C105.962 31.46 106.152 31.13 106.152 30.71C106.152 30.37 106.052 30.1 105.852 29.9C105.672 29.7 105.312 29.51 104.772 29.33C104.232 29.13 103.412 28.92 102.312 28.7C100.652 28.36 99.3725 27.81 98.4725 27.05C97.5925 26.27 97.1525 25.23 97.1525 23.93C97.1525 23.11 97.4125 22.33 97.9325 21.59C98.4525 20.85 99.2225 20.25 100.242 19.79C101.282 19.33 102.512 19.1 103.932 19.1C105.352 19.1 106.592 19.32 107.652 19.76C108.712 20.2 109.512 20.74 110.052 21.38C110.613 22 110.893 22.57 110.893 23.09C110.893 23.27 110.823 23.43 110.682 23.57C110.563 23.71 110.413 23.78 110.233 23.78H107.113C106.952 23.78 106.802 23.73 106.662 23.63C106.402 23.49 106.172 23.34 105.972 23.18C105.632 22.92 105.312 22.72 105.012 22.58C104.712 22.44 104.342 22.37 103.902 22.37C103.382 22.37 102.962 22.49 102.642 22.73C102.342 22.97 102.192 23.28 102.192 23.66C102.192 23.96 102.272 24.21 102.432 24.41C102.612 24.61 102.972 24.81 103.512 25.01C104.072 25.19 104.892 25.38 105.972 25.58C107.912 25.92 109.322 26.52 110.202 27.38C111.102 28.24 111.552 29.25 111.552 30.41C111.552 31.89 110.892 33.08 109.572 33.98C108.253 34.86 106.412 35.3 104.052 35.3ZM114.335 17.15C114.115 17.15 113.935 17.08 113.795 16.94C113.655 16.8 113.585 16.62 113.585 16.4V13.7C113.585 13.48 113.655 13.3 113.795 13.16C113.935 13.02 114.115 12.95 114.335 12.95H117.935C118.155 12.95 118.335 13.02 118.475 13.16C118.615 13.3 118.685 13.48 118.685 13.7V16.4C118.685 16.62 118.615 16.8 118.475 16.94C118.335 17.08 118.155 17.15 117.935 17.15H114.335ZM114.365 35C114.145 35 113.965 34.93 113.825 34.79C113.685 34.65 113.615 34.47 113.615 34.25V20.15C113.615 19.93 113.685 19.75 113.825 19.61C113.965 19.47 114.145 19.4 114.365 19.4H117.905C118.125 19.4 118.305 19.47 118.445 19.61C118.585 19.75 118.655 19.93 118.655 20.15V34.25C118.655 34.45 118.585 34.63 118.445 34.79C118.305 34.93 118.125 35 117.905 35H114.365ZM124.119 35C123.919 35 123.739 34.93 123.579 34.79C123.439 34.63 123.369 34.45 123.369 34.25V23.33H121.089C120.869 23.33 120.689 23.26 120.549 23.12C120.409 22.98 120.339 22.8 120.339 22.58V20.15C120.339 19.93 120.409 19.75 120.549 19.61C120.689 19.47 120.869 19.4 121.089 19.4H123.369V18.44C123.369 16.46 123.929 15.03 125.049 14.15C126.189 13.25 127.819 12.8 129.939 12.8H132.279C132.499 12.8 132.679 12.87 132.819 13.01C132.959 13.15 133.029 13.33 133.029 13.55V15.98C133.029 16.18 132.959 16.36 132.819 16.52C132.679 16.66 132.499 16.73 132.279 16.73H130.179C129.519 16.73 129.049 16.89 128.769 17.21C128.489 17.51 128.349 17.97 128.349 18.59V19.4H131.979C132.199 19.4 132.379 19.47 132.519 19.61C132.659 19.75 132.729 19.93 132.729 20.15V22.58C132.729 22.78 132.659 22.96 132.519 23.12C132.379 23.26 132.199 23.33 131.979 23.33H128.349V34.25C128.349 34.45 128.279 34.63 128.139 34.79C127.999 34.93 127.819 35 127.599 35H124.119ZM137.209 40.7C137.029 40.7 136.879 40.64 136.759 40.52C136.639 40.4 136.579 40.25 136.579 40.07C136.579 39.93 136.609 39.8 136.669 39.68L139.009 34.04L133.249 20.42C133.189 20.26 133.159 20.14 133.159 20.06C133.199 19.88 133.279 19.73 133.399 19.61C133.519 19.47 133.669 19.4 133.849 19.4H137.269C137.689 19.4 137.979 19.61 138.139 20.03L141.559 28.76L145.069 20.03C145.269 19.61 145.569 19.4 145.969 19.4H149.329C149.509 19.4 149.659 19.47 149.779 19.61C149.919 19.73 149.989 19.87 149.989 20.03C149.989 20.11 149.959 20.24 149.899 20.42L141.409 40.07C141.249 40.49 140.949 40.7 140.509 40.7H137.209Z" fill="white"/>
<ellipse cx="24" cy="24.3551" rx="24" ry="24.3127" fill="white"/>
<rect x="15.1579" y="18.8101" width="4.21053" height="17.0615" fill="black"/>
<rect x="8.42105" y="11.9854" width="4.21053" height="23.8862" fill="black"/>
<rect x="28.6316" y="18.8101" width="4.21053" height="17.0615" fill="black"/>
<rect x="21.8947" y="24.7816" width="4.21053" height="11.09" fill="black"/>
<rect x="35.3684" y="11.9854" width="4.21053" height="23.8862" fill="black"/>
</svg>
